HIERARCHY
ROOT Hips
{
 OFFSET 0.000000 0.000000 0.000000
 CHANNELS 6 Xposition Yposition Zposition Yrotation Xrotation Zrotation
 JOINT Chest
 {
  OFFSET 0.000000 9.585900 0.002600
  CHANNELS 3 Yrotation Xrotation Zrotation
  JOINT Chest2
  {
   OFFSET 0.000000 9.601200 -0.005300
   CHANNELS 3 Yrotation Xrotation Zrotation
   JOINT Chest3
   {
    OFFSET 0.000000 9.561800 0.000000
    CHANNELS 3 Yrotation Xrotation Zrotation
    JOINT Chest4
    {
     OFFSET 0.000000 9.552100 0.000000
     CHANNELS 3 Yrotation Xrotation Zrotation
     JOINT Neck
     {
      OFFSET 0.000000 14.453000 0.000000
      CHANNELS 3 Yrotation Xrotation Zrotation
      JOINT Head
      {
       OFFSET 0.000000 8.936500 -0.011300
       CHANNELS 3 Yrotation Xrotation Zrotation
       End Site
       {
        OFFSET 0.000000 17.073600 -0.006000
       }
      }
     }
     JOINT RightCollar
     {
      OFFSET -2.921100 9.558500 0.000000
      CHANNELS 3 Yrotation Xrotation Zrotation
      JOINT RightShoulder
      {
       OFFSET -13.519700 0.000000 0.000000
       CHANNELS 3 Yrotation Xrotation Zrotation
       JOINT RightElbow
       {
        OFFSET 0.000000 -29.696600 0.000000
        CHANNELS 3 Yrotation Xrotation Zrotation
        JOINT RightWrist
        {
         OFFSET 0.000000 -24.004700 0.000000
         CHANNELS 3 Yrotation Xrotation Zrotation
         End Site
         {
          OFFSET 0.000000 -17.728500 0.000000
         }
        }
       }
      }
     }
     JOINT LeftCollar
     {
      OFFSET 2.921100 9.558500 0.000000
      CHANNELS 3 Yrotation Xrotation Zrotation
      JOINT LeftShoulder
      {
       OFFSET 13.519700 0.000000 0.000000
       CHANNELS 3 Yrotation Xrotation Zrotation
       JOINT LeftElbow
       {
        OFFSET 0.000000 -29.696600 0.000000
        CHANNELS 3 Yrotation Xrotation Zrotation
        JOINT LeftWrist
        {
         OFFSET 0.000000 -24.004700 0.000000
         CHANNELS 3 Yrotation Xrotation Zrotation
         End Site
         {
          OFFSET 0.000000 -17.728500 0.000000
         }
        }
       }
      }
     }
    }
   }
  }
 }
 JOINT RightHip
 {
  OFFSET -7.771700 -0.012900 -0.001300
  CHANNELS 3 Yrotation Xrotation Zrotation
  JOINT RightKnee
  {
   OFFSET 0.000000 -40.869800 0.001200
   CHANNELS 3 Yrotation Xrotation Zrotation
   JOINT RightAnkle
   {
    OFFSET 0.000000 -39.717900 0.002100
    CHANNELS 3 Yrotation Xrotation Zrotation
    JOINT RightToe
    {
     OFFSET 0.000000 -4.965400 11.033500
     CHANNELS 3 Yrotation Xrotation Zrotation
     End Site
     {
      OFFSET 0.000000 -1.423100 5.872300
     }
    }
   }
  }
 }
 JOINT LeftHip
 {
  OFFSET 7.771700 -0.012900 -0.001300
  CHANNELS 3 Yrotation Xrotation Zrotation
  JOINT LeftKnee
  {
   OFFSET 0.000000 -40.869800 0.001200
   CHANNELS 3 Yrotation Xrotation Zrotation
   JOINT LeftAnkle
   {
    OFFSET 0.000000 -39.717900 0.002100
    CHANNELS 3 Yrotation Xrotation Zrotation
    JOINT LeftToe
    {
     OFFSET 0.000000 -4.965400 11.033500
     CHANNELS 3 Yrotation Xrotation Zrotation
     End Site
     {
      OFFSET 0.000000 -1.423100 5.872300
     }
    }
   }
  }
 }
}
MOTION
Frames: 8
Frame Time: 0.008333
-25.508487 57.476529 26.458713 163.051852 -7.333978 0.208672 2.179522 5.986350 1.586168 0.069788 0.225922 0.027444 0.123016 0.398164 0.048509 1.808889 5.722221 0.783878 1.328221 19.280591 -1.346536 2.845570 0.057959 -2.873559 3.251846 8.145312 1.811384 -2.941875 -13.985078 -19.269830 -61.952392 -76.787899 95.461261 -4.887777 0.118700 -13.150436 -3.213307 7.664599 -0.629732 -3.400343 -6.315020 11.062312 54.399734 -75.467637 -83.994156 -3.737643 7.712915 6.736853 -18.930025 -64.627383 8.122470 -35.002035 72.967521 -34.676999 -2.399624 -8.127030 -2.404141 -0.181126 0.879393 -0.124810 0.636837 -67.568322 14.021521 39.509214 65.641588 32.166827 -16.996963 -10.101665 5.616400 -0.361265 -1.101563 -0.162854
-25.524602 57.479605 26.464750 163.028584 -7.371598 0.237338 2.303892 6.042785 1.566696 0.075330 0.231674 0.027414 0.132698 0.408172 0.048336 1.920041 5.777303 0.777351 1.265801 19.254981 -1.340393 2.730372 0.007883 -2.843609 3.145245 8.090935 1.724703 -3.193382 -14.172149 -19.294499 -65.465715 -76.662349 99.023808 -4.805701 0.176239 -12.621651 -3.158851 7.636282 -0.429597 -3.312251 -6.738625 11.367377 55.620050 -74.799178 -85.728142 -3.528348 7.517077 6.636941 -18.868123 -64.598471 8.046423 -34.933529 72.956465 -34.604396 -2.378713 -8.114549 -2.420075 -0.175766 0.876226 -0.107146 0.644683 -67.531961 13.974547 39.620682 65.614855 32.271497 -16.975639 -10.066606 5.621808 -0.386937 -1.135816 -0.182303
-25.535490 57.482661 26.473755 163.034919 -7.403447 0.228791 2.423013 6.087970 1.585246 0.081212 0.237479 0.027408 0.143117 0.418166 0.048359 2.037117 5.829847 0.773361 1.193745 19.227455 -1.331294 2.596666 -0.045999 -2.805319 3.013972 8.049291 1.647928 -3.496552 -14.332890 -19.273532 -68.857790 -76.415646 102.515334 -4.716182 0.237637 -12.046256 -3.108201 7.615079 -0.229388 -3.292245 -7.232467 11.696206 56.376669 -74.122368 -87.032810 -3.319421 7.317517 6.503147 -18.903832 -64.562513 8.044042 -34.870995 72.948219 -34.534518 -2.342172 -8.094467 -2.425791 -0.199438 0.865395 -0.112196 0.514319 -67.498500 14.023598 39.611183 65.585199 32.309419 -16.958386 -10.034128 5.552118 -0.365424 -1.141840 -0.164751
-25.551792 57.485157 26.484962 163.023572 -7.416477 0.254626 2.567489 6.108623 1.581864 0.087218 0.243089 0.027673 0.153638 0.427821 0.048904 2.153832 5.877966 0.777078 1.114345 19.199151 -1.324590 2.444885 -0.094983 -2.764160 2.896614 8.031910 1.547945 -3.896732 -14.478754 -19.177773 -72.005788 -76.069721 105.828312 -4.610546 0.297996 -11.477096 -3.046841 7.609118 -0.045620 -3.338426 -7.808757 12.045246 56.674678 -73.436596 -87.933610 -3.114101 7.106467 6.340091 -18.893370 -64.552456 7.988757 -34.767434 72.936622 -34.407970 -2.319293 -8.086793 -2.451547 -0.191988 0.874656 -0.121609 0.450486 -67.479679 14.006355 39.703412 65.543587 32.404290 -16.915754 -10.001859 5.552234 -0.385051 -1.160957 -0.195454
-25.561573 57.487375 26.497258 163.052230 -7.439211 0.245284 2.683740 6.130146 1.624776 0.093242 0.248212 0.028383 0.164047 0.436532 0.050152 2.268909 5.917840 0.791122 1.026844 19.171275 -1.322322 2.271053 -0.126425 -2.722270 2.797994 8.041153 1.419377 -4.401521 -14.612222 -19.007160 -74.813726 -75.653766 108.867625 -4.479371 0.348227 -10.958957 -2.975030 7.617139 0.109797 -3.463548 -8.468078 12.412184 56.555299 -72.748364 -88.461319 -2.913568 6.887907 6.159687 -18.933801 -64.526309 7.973800 -34.733997 72.929028 -34.347020 -2.311639 -8.078614 -2.461879 -0.177414 0.871461 -0.133530 0.248182 -67.448310 14.071213 39.709321 65.496452 32.453502 -16.836402 -9.981514 5.475720 -0.394807 -1.156327 -0.184642
-25.573408 57.489268 26.507133 163.150723 -7.477228 0.256608 2.754018 6.165546 1.649147 0.099971 0.252996 0.029161 0.175750 0.444656 0.051565 2.398118 5.949238 0.807376 0.921009 19.142347 -1.315104 2.087018 -0.169231 -2.693021 2.689757 8.063259 1.285718 -5.008221 -14.734414 -18.757240 -77.186549 -75.206382 111.526879 -4.322091 0.375222 -10.513632 -2.933629 7.613735 0.252795 -3.696329 -9.194854 12.797748 56.054303 -72.062538 -88.614191 -2.713129 6.666338 5.972734 -18.964407 -64.495794 7.872841 -34.705395 72.930217 -34.293105 -2.324293 -8.032675 -2.491483 -0.153625 0.817983 -0.103869 0.029377 -67.399719 14.061383 39.691816 65.443267 32.493377 -16.814735 -10.018971 5.398120 -0.316158 -1.082814 -0.178712
-25.583507 57.490232 26.519085 163.217890 -7.510337 0.276945 2.911501 6.203266 1.665708 0.108989 0.258576 0.029461 0.191555 0.454275 0.052147 2.569219 5.980977 0.812928 0.780626 19.105376 -1.286951 1.830582 -0.286875 -2.598791 2.525398 8.062610 1.189403 -5.714221 -14.841713 -18.427717 -79.030060 -74.758537 113.704580 -4.158291 0.370562 -10.144811 -2.986443 7.551078 0.414898 -4.048181 -9.965680 13.203156 55.177611 -71.377580 -88.373172 -2.511110 6.437943 5.790560 -18.952008 -64.473334 7.770830 -34.700527 72.930159 -34.270058 -2.320215 -8.043046 -2.499928 -0.143785 0.826672 -0.106825 -0.158865 -67.357221 14.039977 39.706740 65.384623 32.555756 -16.735440 -9.985785 5.394209 -0.283199 -1.084611 -0.247569
-25.594681 57.490284 26.531629 163.315414 -7.541315 0.321515 3.112617 6.258292 1.641810 0.121712 0.266500 0.028993 0.213873 0.467939 0.051342 2.800533 6.025694 0.800285 0.594434 19.051072 -1.228260 1.490058 -0.363255 -2.453976 2.276814 8.001223 1.159139 -6.509357 -14.915976 -18.045238 -80.300630 -74.305265 115.344100 -4.012724 0.334965 -9.846543 -3.173975 7.381348 0.611742 -4.531417 -10.762511 13.627289 53.913283 -70.683351 -87.709579 -2.303857 6.189872 5.636857 -18.912924 -64.462688 7.607694 -34.678179 72.935621 -34.239626 -2.314994 -8.060596 -2.497051 -0.146547 0.840711 -0.105522 -0.315652 -67.320011 13.944523 39.716130 65.321503 32.620879 -16.666528 -9.935910 5.369297 -0.323230 -1.103410 -0.266557
